<svg xmlns="http://www.w3.org/2000/svg" height="512pt" version="1.1" viewBox="0 -23 512.00044 512" width="512pt">
<g id="surface1">
<path d="M 371.667969 323.859375 L 251.796875 382.917969 C 268.304688 395.878906 289.09375 402.125 310.011719 400.414062 L 313.183594 400.152344 L 368.046875 455.015625 L 440.578125 392.46875 Z M 371.667969 323.859375 " style=" stroke:none;fill-rule:nonzero;fill:rgb(98.823529%,77.647059%,61.568627%);fill-opacity:1;" />
<path d="M 439.289062 142.699219 C 440.550781 141.4375 441.675781 140.089844 442.679688 138.683594 C 441.578125 136.90625 440.265625 135.226562 438.726562 133.6875 C 427.914062 122.875 410.382812 122.875 399.570312 133.6875 L 409.359375 123.898438 C 420.171875 113.085938 420.171875 95.554688 409.359375 84.742188 C 398.542969 73.925781 381.011719 73.925781 370.199219 84.742188 L 379.988281 74.949219 C 390.800781 64.136719 390.800781 46.605469 379.988281 35.792969 C 369.175781 24.980469 351.644531 24.980469 340.832031 35.792969 L 269.636719 106.988281 L 115.304688 270.203125 L 24.210938 361.292969 L 115.464844 404.03125 L 217.46875 301.648438 C 259.398438 300.128906 299.199219 282.789062 328.867188 253.121094 Z M 439.289062 142.699219 " style=" stroke:none;fill-rule:nonzero;fill:rgb(98.823529%,77.647059%,61.568627%);fill-opacity:1;" />
<path d="M 154.460938 231.042969 L 127.4375 204.019531 C 116.625 193.203125 99.09375 193.203125 88.277344 204.019531 C 77.464844 214.832031 77.464844 232.363281 88.277344 243.175781 L 115.304688 270.203125 C 126.117188 281.015625 143.648438 281.015625 154.460938 270.203125 C 165.277344 259.390625 165.277344 241.855469 154.460938 231.042969 Z M 154.460938 231.042969 " style=" stroke:none;fill-rule:nonzero;fill:rgb(98.823529%,77.647059%,61.568627%);fill-opacity:1;" />
<path d="M 193.621094 191.886719 L 153.15625 151.421875 C 142.34375 140.609375 124.8125 140.609375 114 151.421875 C 103.1875 162.238281 103.1875 179.769531 114 190.582031 L 154.460938 231.042969 C 165.277344 241.855469 182.808594 241.855469 193.621094 231.042969 C 204.433594 220.230469 204.433594 202.699219 193.621094 191.886719 Z M 193.621094 191.886719 " style=" stroke:none;fill-rule:nonzero;fill:rgb(98.823529%,77.647059%,61.568627%);fill-opacity:1;" />
<path d="M 232.777344 152.726562 L 182.527344 102.476562 C 171.714844 91.664062 154.183594 91.664062 143.371094 102.476562 C 139.890625 105.957031 137.535156 110.132812 136.296875 114.554688 C 145.617188 111.941406 156.039062 114.296875 163.375 121.628906 L 213.628906 171.878906 C 220.960938 179.214844 223.3125 189.636719 220.699219 198.957031 C 225.125 197.71875 229.300781 195.363281 232.78125 191.886719 C 243.59375 181.074219 243.59375 163.539062 232.777344 152.726562 Z M 232.777344 152.726562 " style=" stroke:none;fill-rule:nonzero;fill:rgb(100%,100%,100%);fill-opacity:1;" />
<path d="M 213.625 171.878906 L 163.375 121.628906 C 156.039062 114.296875 145.617188 111.941406 136.296875 114.554688 C 133.679688 123.878906 136.035156 134.300781 143.367188 141.632812 L 193.621094 191.886719 C 200.953125 199.21875 211.375 201.570312 220.699219 198.957031 C 223.3125 189.636719 220.960938 179.214844 213.625 171.878906 Z M 213.625 171.878906 " style=" stroke:none;fill-rule:nonzero;fill:rgb(98.823529%,77.647059%,61.568627%);fill-opacity:1;" />
<path d="M 271.9375 113.570312 L 211.894531 53.527344 C 201.082031 42.714844 183.550781 42.714844 172.738281 53.527344 C 161.925781 64.339844 161.925781 81.875 172.738281 92.6875 L 232.777344 152.726562 C 243.59375 163.539062 261.125 163.539062 271.9375 152.726562 C 282.75 141.914062 282.75 124.382812 271.9375 113.570312 Z M 271.9375 113.570312 " style=" stroke:none;fill-rule:nonzero;fill:rgb(100%,100%,100%);fill-opacity:1;" />
<path d="M 509.042969 332.402344 L 484.632812 308.191406 C 480.710938 304.300781 474.378906 304.328125 470.488281 308.25 C 466.597656 312.171875 466.625 318.503906 470.546875 322.394531 L 494.953125 346.605469 C 496.90625 348.539062 499.453125 349.503906 501.996094 349.503906 C 504.570312 349.503906 507.144531 348.519531 509.097656 346.546875 C 512.988281 342.625 512.964844 336.292969 509.042969 332.402344 Z M 509.042969 332.402344 " style=" stroke:none;fill-rule:nonzero;fill:rgb(0%,0%,0%);fill-opacity:1;" />
<path d="M 445.617188 283.421875 L 445.601562 283.4375 C 441.695312 287.34375 441.703125 293.667969 445.609375 297.574219 C 447.558594 299.527344 450.117188 300.5 452.675781 300.5 C 455.242188 300.5 457.804688 299.519531 459.761719 297.566406 C 463.667969 293.660156 463.667969 287.328125 459.761719 283.421875 C 455.855469 279.515625 449.523438 279.515625 445.617188 283.421875 Z M 445.617188 283.421875 " style=" stroke:none;fill-rule:nonzero;fill:rgb(0%,0%,0%);fill-opacity:1;" />
<path d="M 320.257812 393.082031 C 318.179688 391.003906 315.292969 389.945312 312.367188 390.183594 L 309.195312 390.445312 C 294.558594 391.644531 280.09375 388.4375 267.460938 381.359375 L 273.886719 374.910156 C 311.894531 372.566406 347.484375 356.546875 374.492188 329.539062 L 471.519531 232.511719 C 486.214844 217.816406 486.214844 193.90625 471.519531 179.207031 C 466.339844 174.027344 460.007812 170.679688 453.34375 169.152344 C 455.628906 164.238281 456.839844 158.847656 456.839844 153.265625 C 456.839844 143.199219 452.917969 133.734375 445.800781 126.613281 C 440.214844 121.03125 433.1875 117.425781 425.558594 116.125 C 429.851562 103.039062 426.816406 88.050781 416.429688 77.667969 C 410.71875 71.957031 403.617188 68.476562 396.203125 67.203125 C 397.445312 63.433594 398.101562 59.453125 398.101562 55.371094 C 398.101562 45.304688 394.179688 35.839844 387.0625 28.71875 C 379.941406 21.601562 370.476562 17.679688 360.410156 17.679688 C 354.015625 17.679688 347.871094 19.265625 342.410156 22.246094 L 341.445312 21.207031 C 328.902344 7.730469 311.148438 0 292.738281 0 L 214.199219 0 C 208.675781 0 204.195312 4.480469 204.195312 10.003906 L 204.195312 23.117188 C 204.195312 28.367188 205.085938 33.476562 206.78125 38.28125 C 202.257812 36.402344 197.363281 35.417969 192.316406 35.417969 C 182.25 35.417969 172.785156 39.335938 165.664062 46.457031 C 155.273438 56.847656 152.242188 71.84375 156.546875 84.9375 C 149.125 86.203125 142.015625 89.6875 136.296875 95.402344 C 129.179688 102.519531 125.257812 111.984375 125.257812 122.054688 C 125.257812 126.128906 125.910156 130.101562 127.148438 133.863281 C 119.527344 135.167969 112.507812 138.769531 106.929688 144.351562 C 95.453125 155.828125 92.941406 172.925781 99.390625 186.867188 C 92.558594 188.425781 86.285156 191.867188 81.207031 196.945312 C 66.511719 211.640625 66.511719 235.550781 81.207031 250.246094 L 101.160156 270.199219 L 2.929688 368.433594 C -0.976562 372.339844 -0.976562 378.671875 2.929688 382.578125 C 4.882812 384.53125 7.441406 385.507812 10 385.507812 C 12.5625 385.507812 15.121094 384.53125 17.074219 382.578125 L 116.257812 283.394531 C 121.871094 286.601562 128.242188 288.3125 134.882812 288.3125 C 144.949219 288.3125 154.414062 284.394531 161.535156 277.273438 C 169.269531 269.539062 172.925781 259.253906 172.519531 249.101562 C 173.027344 249.121094 173.535156 249.136719 174.042969 249.136719 C 183.691406 249.136719 193.347656 245.460938 200.691406 238.117188 C 207.8125 230.996094 211.730469 221.53125 211.730469 211.464844 C 211.730469 210.957031 211.714844 210.449219 211.695312 209.945312 C 212.195312 209.964844 212.695312 209.980469 213.199219 209.980469 C 222.851562 209.980469 232.503906 206.304688 239.851562 198.957031 C 246.96875 191.839844 250.890625 182.375 250.890625 172.308594 C 250.890625 171.796875 250.871094 171.292969 250.851562 170.785156 C 251.351562 170.804688 251.855469 170.820312 252.355469 170.820312 C 262.007812 170.820312 271.660156 167.148438 279.007812 159.800781 C 292.816406 145.992188 293.648438 124.050781 281.507812 109.257812 L 347.902344 42.867188 C 351.242188 39.523438 355.683594 37.683594 360.410156 37.683594 C 365.132812 37.683594 369.574219 39.523438 372.914062 42.867188 C 376.257812 46.207031 378.097656 50.648438 378.097656 55.371094 C 378.097656 60.097656 376.257812 64.539062 372.914062 67.878906 L 327.609375 113.183594 C 323.703125 117.089844 323.703125 123.425781 327.609375 127.332031 C 329.5625 129.285156 332.121094 130.261719 334.679688 130.261719 C 337.238281 130.261719 339.800781 129.285156 341.753906 127.332031 L 377.269531 91.8125 C 384.167969 84.917969 395.386719 84.914062 402.285156 91.8125 C 409.179688 98.710938 409.179688 109.929688 402.285156 116.824219 L 366.765625 152.34375 C 362.859375 156.25 362.859375 162.582031 366.765625 166.488281 C 368.71875 168.441406 371.277344 169.417969 373.839844 169.417969 C 376.398438 169.417969 378.957031 168.441406 380.910156 166.488281 L 406.636719 140.761719 C 409.980469 137.417969 414.421875 135.582031 419.144531 135.582031 C 423.871094 135.582031 428.3125 137.417969 431.652344 140.761719 C 434.992188 144.101562 436.832031 148.542969 436.832031 153.269531 C 436.832031 157.992188 434.992188 162.433594 431.652344 165.773438 L 405.921875 191.503906 C 402.015625 195.40625 402.015625 201.742188 405.921875 205.648438 C 407.875 207.601562 410.4375 208.578125 412.996094 208.578125 C 415.554688 208.578125 418.113281 207.601562 420.066406 205.648438 L 432.367188 193.347656 C 439.265625 186.460938 450.480469 186.464844 457.371094 193.355469 C 464.269531 200.253906 464.269531 211.472656 457.371094 218.371094 L 360.34375 315.398438 C 335.980469 339.761719 303.597656 353.867188 269.167969 355.117188 C 266.636719 355.207031 264.230469 356.257812 262.445312 358.054688 L 172.8125 448.019531 C 168.914062 451.929688 168.921875 458.265625 172.835938 462.164062 C 174.789062 464.105469 177.34375 465.078125 179.898438 465.078125 C 182.460938 465.078125 185.027344 464.097656 186.980469 462.136719 L 252.910156 395.964844 C 269.65625 406.710938 289.347656 411.816406 309.375 410.492188 L 360.972656 462.09375 C 362.925781 464.046875 365.484375 465.023438 368.042969 465.023438 C 370.601562 465.023438 373.164062 464.046875 375.117188 462.09375 C 379.023438 458.1875 379.023438 451.855469 375.117188 447.945312 Z M 224.199219 20.003906 L 292.738281 20.003906 C 305.613281 20.003906 318.027344 25.410156 326.800781 34.835938 L 327.207031 35.273438 L 267.496094 94.984375 L 240.023438 67.511719 C 243.136719 68.175781 246.339844 68.53125 249.601562 68.527344 C 249.671875 68.527344 249.746094 68.527344 249.820312 68.527344 L 277.269531 68.398438 C 282.792969 68.375 287.25 63.875 287.222656 58.351562 C 287.199219 52.84375 282.726562 48.394531 277.222656 48.394531 C 277.207031 48.394531 277.191406 48.394531 277.175781 48.394531 L 249.726562 48.523438 C 249.683594 48.523438 249.644531 48.523438 249.601562 48.523438 C 242.839844 48.523438 236.480469 45.898438 231.683594 41.125 C 226.855469 36.320312 224.199219 29.929688 224.199219 23.117188 Z M 147.390625 263.128906 C 144.050781 266.472656 139.609375 268.3125 134.882812 268.3125 C 130.160156 268.3125 125.71875 266.472656 122.378906 263.128906 L 95.351562 236.105469 C 88.453125 229.207031 88.453125 217.988281 95.351562 211.089844 C 98.691406 207.75 103.132812 205.910156 107.859375 205.910156 C 112.582031 205.910156 117.023438 207.75 120.363281 211.089844 L 147.390625 238.117188 C 154.285156 245.011719 154.285156 256.234375 147.390625 263.128906 Z M 191.730469 211.464844 C 191.730469 216.1875 189.890625 220.632812 186.546875 223.972656 C 179.652344 230.867188 168.429688 230.867188 161.535156 223.972656 L 121.070312 183.507812 C 114.175781 176.613281 114.175781 165.390625 121.070312 158.496094 C 124.410156 155.152344 128.855469 153.3125 133.578125 153.3125 C 138.300781 153.3125 142.742188 155.152344 146.085938 158.496094 L 186.546875 198.957031 C 189.890625 202.300781 191.730469 206.742188 191.730469 211.464844 Z M 230.886719 172.308594 C 230.886719 177.03125 229.046875 181.472656 225.707031 184.8125 C 218.808594 191.710938 207.585938 191.710938 200.691406 184.8125 L 150.441406 134.5625 C 147.097656 131.21875 145.261719 126.78125 145.261719 122.054688 C 145.261719 117.332031 147.097656 112.890625 150.441406 109.546875 C 153.886719 106.101562 158.417969 104.375 162.945312 104.375 C 167.472656 104.375 171.996094 106.097656 175.445312 109.539062 L 225.707031 159.800781 C 229.046875 163.140625 230.886719 167.582031 230.886719 172.308594 Z M 264.863281 145.65625 C 257.96875 152.550781 246.746094 152.550781 239.851562 145.65625 L 189.597656 95.402344 C 189.59375 95.398438 189.585938 95.394531 189.582031 95.386719 L 179.808594 85.613281 C 172.914062 78.714844 172.914062 67.496094 179.808594 60.601562 C 183.257812 57.152344 187.785156 55.425781 192.316406 55.425781 C 196.84375 55.425781 201.375 57.152344 204.824219 60.601562 L 264.863281 120.640625 C 268.203125 123.980469 270.042969 128.421875 270.042969 133.148438 C 270.042969 137.871094 268.207031 142.316406 264.863281 145.65625 Z M 264.863281 145.65625 " style=" stroke:none;fill-rule:nonzero;fill:rgb(0%,0%,0%);fill-opacity:1;" />
</g>
</svg>